<svg width="30" height="36" viewBox="0 0 30 36" fill="none" xmlns="http://www.w3.org/2000/svg">
<path d="M29.1429 14.8572C29.1429 25.8571 15 35.2857 15 35.2857C15 35.2857 0.857147 25.8571 0.857147 14.8572C0.857147 11.1062 2.34719 7.50894 4.99949 4.85664C7.65179 2.20434 11.2491 0.714294 15 0.714294C18.7509 0.714294 22.3482 2.20434 25.0005 4.85664C27.6528 7.50894 29.1429 11.1062 29.1429 14.8572Z" stroke="#999999" stroke-linecap="round" stroke-linejoin="round"/>
<path d="M15 19.5714C17.6036 19.5714 19.7143 17.4608 19.7143 14.8572C19.7143 12.2535 17.6036 10.1429 15 10.1429C12.3964 10.1429 10.2857 12.2535 10.2857 14.8572C10.2857 17.4608 12.3964 19.5714 15 19.5714Z" stroke="#999999" stroke-linecap="round" stroke-linejoin="round"/>
</svg>
